# AST/ASF file generated using VICON BodyLanguage
# -----------------------------------------------
:version 1.10
:name VICON
:units
  mass 1.0
  length 0.45
  angle deg
:documentation
   .ast/.asf automatically generated from VICON data using
   VICON BodyBuilder and BodyLanguage model FoxedUp or BRILLIANT.MOD
:root
   order TX TY TZ RX RY RZ
   axis XYZ
   position 0 0 0  
   orientation 0 0 0 
:bonedata
  begin
     id 1 
     name lhipjoint
     direction 0.650112 -0.723553 0.232005 
     length 2.45805 
     axis 0 0 0  XYZ
  end
  begin
     id 2 
     name lfemur
     direction 0.34202 -0.939693 0  
     length 7.00073  
     axis 0 0 20  XYZ
    dof rx ry rz
    limits (-160.0 20.0)
           (-70.0 70.0)
           (-60.0 70.0)
  end
  begin
     id 3 
     name ltibia
     direction 0.34202 -0.939693 0   
     length 7.8748   
     axis 0 0 20   XYZ
    dof rx
    limits (-10.0 170.0)
  end
  begin
     id 4 
     name lfoot
     direction 0.0542825 -0.14914 0.987325   
     length 1.75978   
     axis -90 7.62852e-016 20   XYZ
    dof rx rz
    limits (-45.0 90.0)
           (-70.0 20.0)
  end
  begin
     id 5 
     name ltoes
     direction 1.53509e-011 -4.21906e-011 1   
     length 0.893912   
     axis -90 7.62852e-016 20   XYZ
    dof rx
    limits (-90.0 20.0)
  end
  begin
     id 6 
     name rhipjoint
     direction -0.637897 -0.733345 0.235145   
     length 2.42522  
     axis 0 0 0  XYZ 
  end
  begin
     id 7 
     name rfemur
     direction -0.34202 -0.939693 0   
     length 7.02549   
     axis 0 0 -20   XYZ
    dof rx ry rz
    limits (-160.0 20.0)
           (-70.0 70.0)
           (-70.0 60.0)
  end
  begin
     id 8 
     name rtibia
     direction -0.34202 -0.939693 0   
     length 7.71512   
     axis 0 0 -20   XYZ
    dof rx
    limits (-10.0 170.0)
 end
 begin
     id 9 
     name rfoot
     direction -0.0822618 -0.226012 0.970645   
     length 1.90014  
     axis -90 -7.62852e-016 -20   XYZ
    dof rx rz
    limits (-45.0 90.0)
           (-20.0 70.0)
  end
  begin
     id 10 
     name rtoes
     direction -1.53542e-011 -4.21872e-011 1   
     length 0.957341   
     axis -90 -7.62852e-016 -20   XYZ
    dof rx
    limits (-90.0 20.0)
  end
  begin
     id 11 
     name lowerback
     direction -0.0022947 0.999774 -0.0211557   
     length 1.89909   
     axis 0 0 0   XYZ
    dof rx ry rz
    limits (-20.0 45.0)
           (-30.0 30.0)
           (-30.0 30.0)
  end
  begin
     id 12 
     name upperback
     direction 0.0107737 0.998635 0.0511027   
     length 1.8853   
     axis 0 0 0   XYZ
    dof rx ry rz
    limits (-20.0 45.0)
           (-30.0 30.0)
           (-30.0 30.0)
  end
  begin
     id 13 
     name thorax
     direction 0.011824 0.998136 0.0598754   
     length 1.88911   
     axis 0 0 0   XYZ
    dof rx ry rz
    limits (-20.0 45.0)
           (-30.0 30.0)
           (-30.0 30.0)
  end
  begin
     id 14 
     name lowerneck
     direction -0.0685355 0.990319 0.120714   
     length 1.91222   
     axis 0 0 0   XYZ
    dof rx ry rz
    limits (-20.0 45.0)
           (-30.0 30.0)
           (-30.0 30.0)
  end
  begin
     id 15 
     name upperneck
     direction 0.0886204 0.955665 -0.280805   
     length 1.92526   
     axis 0 0 0   XYZ
    dof rx ry rz
    limits (-20.0 45.0)
           (-30.0 30.0)
           (-30.0 30.0)
  end
  begin
     id 16
     name head
     direction 0.0233423 0.993502 -0.111393  
     length 1.96056  
     axis 0 0 0   XYZ
    dof rx ry rz
    limits (-20.0 45.0)
           (-30.0 30.0)
           (-30.0 30.0)
  end
  begin
     id 17 
     name lclavicle
     direction 0.941873 0.32922 0.0670041  
     length 3.31705  
     axis 0 0 0   XYZ
    dof ry rz
    limits (-20.0 10.0)
           (0.0 20.0)
  end
  begin
     id 18 
     name lhumerus
     direction 1 -4.4898e-011 3.38707e-028   
     length 5.29277   
     axis 180 -30 -90   XYZ
    dof rx ry rz
    limits (-60.0 90.0)
           (-90.0 90.0)
           (-90.0 90.0)
  end
  begin
     id 19
     name lradius
     direction 1 -4.48952e-011 1.63213e-028   
     length 2.85226   
     axis 180 -30 -90   XYZ
    dof rx
    limits (-10.0 170.0)
  end
  begin
     id 20
     name lwrist
     direction 1 -4.49001e-011 1.27856e-027   
     length 1.42613   
     axis -1.61767e-015 90 90   XYZ
    dof ry
    limits (-180.0 0.0)
 end
  begin
     id 21 
     name lhand
     direction 1 -4.48976e-011 2.55931e-027   
     length 0.602097   
     axis -1.63363e-015 90 90   XYZ
    dof rx rz
    limits (-90.0 90.0)
           (-45.0 45.0)
  end
  begin
     id 22 
     name lfingers
     direction 1 -4.48986e-011 5.11684e-027   
     length 0.485426   
     axis -3.26723e-015 90 90   XYZ
    dof rx
    limits (0.0 90.0)
  end
  begin
     id 23
     name lthumb
     direction 0.707107 -6.34915e-011 0.707107   
     length 0.696978   
     axis -90 45 -2.25915e-014   XYZ
    dof rx rz
    limits (-45.0 45.0)
           (-45.0 45.0)
  end
  begin
     id 24 
     name rclavicle
     direction -0.939974 0.327078 0.0973096   
     length 3.10337  
     axis 0 0 0   XYZ 
    dof ry rz
    limits (-10.0 20.0)
           (-20.0 0.0)
  end
  begin
     id 25 
     name rhumerus
     direction -1 -4.48975e-011 1.83745e-027  
     length 5.13304   
     axis 180 30 90   XYZ
    dof rx ry rz
    limits (-90.0 60.0)
           (-90.0 90.0)
           (-90.0 90.0)
  end
  begin
     id 26 
     name rradius
     direction -1 -4.48977e-011 7.1775e-029   
     length 2.74305   
     axis 180 30 90   XYZ
    dof rx
    limits (-10.0 170.0)
  end
  begin
     id 27 
     name rwrist
     direction -1 -4.48977e-011 1.27963e-027   
     length 1.37152   
     axis -1.61767e-015 -90 -90   XYZ
    dof ry
    limits (-180.0 0.0)
  end
  begin
     id 28
     name rhand
     direction -1 -4.4888e-011 2.56782e-027   
     length 0.767976   
     axis -1.63363e-015 -90 -90   XYZ
    dof rx rz
    limits (-90.0 90.0)
           (-45.0 45.0)
  end
  begin
     id 29
     name rfingers
     direction -1 -4.48947e-011 5.12384e-027   
     length 0.619162   
     axis -3.26723e-015 -90 -90   XYZ
    dof rx
    limits (0.0 90.0)
  end
  begin
     id 30
     name rthumb
     direction -0.707107 -6.34857e-011 0.707107   
     length 0.888997   
     axis -90 -45 2.25915e-014   XYZ
    dof rx rz
    limits (-45.0 45.0)
           (-45.0 45.0)
  end
:hierarchy
  begin
    root lhipjoint rhipjoint lowerback
    lhipjoint lfemur
    lfemur ltibia
    ltibia lfoot
    lfoot ltoes
    rhipjoint rfemur
    rfemur rtibia
    rtibia rfoot
    rfoot rtoes
    lowerback upperback
    upperback thorax
    thorax lowerneck lclavicle rclavicle
    lowerneck upperneck
    upperneck head
    lclavicle lhumerus
    lhumerus lradius
    lradius lwrist
    lwrist lhand lthumb
    lhand lfingers
    rclavicle rhumerus
    rhumerus rradius
    rradius rwrist
    rwrist rhand rthumb
    rhand rfingers
  end

#!OML:ASF F:\VICON\USERDATA\INSTALL\rory3\rory3.ASF
:FULLY-SPECIFIED
:DEGREES
617
root -0.0616112 16.5196 -1.37617 8.42948 -4.11744 -5.636
lowerback 12.3828 -1.44025 -3.72755
upperback 3.42438 -2.46423 -2.42554
thorax -3.29569 -1.20586 -0.0623293
lowerneck -17.5167 -9.19245 -12.4904
upperneck 24.0601 -15.7596 21.0691
head 14.114 -5.85715 7.62765
rclavicle -3.26007e-014 -1.59028e-015
rhumerus 20.338 -28.5015 -13.8131
rradius 94.2904
rwrist 7.62951
rhand 1.17528 19.1575
rfingers 7.12502
rthumb 26.7156 -8.9766
lclavicle -3.26007e-014 -1.59028e-015
lhumerus 36.3287 18.4635 52.162
lradius 96.9774
lwrist 21.6578
lhand 8.89969 24.1291
lfingers 7.12502
lthumb 34.082 50.8946
rfemur -29.7026 2.0996 24.2999
rtibia 41.5158
rfoot -23.8753 0.80571
rtoes -18.6006
lfemur -31.4791 -0.0160726 -10.1328
ltibia 48.5769
lfoot -23.3203 -0.0243728
ltoes -17.2964
618
root -0.108689 16.5108 -1.37809 8.35707 -4.3104 -5.84728
lowerback 12.4863 -1.54849 -4.16553
upperback 3.44401 -2.68092 -2.77794
thorax -3.3228 -1.31067 -0.150043
lowerneck -17.7148 -9.09555 -12.554
upperneck 24.2216 -15.6098 21.0476
head 14.196 -5.7874 7.67236
rclavicle 2.3059e-014 1.74931e-014
rhumerus 20.4673 -28.6101 -13.1358
rradius 94.0799
rwrist 7.62742
rhand 1.15187 19.1768
rfingers 7.12502
rthumb 26.6932 -8.96073
lclavicle 2.3059e-014 1.74931e-014
lhumerus 36.0655 18.2973 53.1541
lradius 97.1637
lwrist 21.5759
lhand 8.80217 23.8986
lfingers 7.12502
lthumb 33.9894 50.6847
rfemur -29.6066 2.32156 24.6934
rtibia 41.4941
rfoot -23.8479 0.723724
rtoes -19.1484
lfemur -31.4267 0.274668 -9.74528
ltibia 48.8103
lfoot -23.4702 0.264594
ltoes -19.2022
619
root -0.151951 16.5013 -1.37956 8.27908 -4.45475 -6.32838
lowerback 12.65 -1.67012 -4.22954
upperback 3.43824 -2.87291 -3.0784
thorax -3.42596 -1.40324 -0.393709
lowerneck -17.8409 -9.03271 -12.5426
upperneck 24.3489 -15.5124 20.9638
head 14.2436 -5.74482 7.66175
rclavicle 1.82882e-014 3.33958e-014
rhumerus 20.4487 -28.6661 -12.368
rradius 93.9359
rwrist 7.64767
rhand 0.804746 19.2519
rfingers 7.12502
rthumb 26.361 -8.93585
lclavicle 1.82882e-014 3.33958e-014
lhumerus 35.7961 18.0348 54.0426
lradius 97.2454
lwrist 21.3875
lhand 8.77388 23.5521
lfingers 7.12502
lthumb 33.9625 50.3442
rfemur -29.4474 2.52877 25.3879
rtibia 41.4467
rfoot -23.7174 0.445037
rtoes -20.7938
lfemur -31.3343 0.571407 -9.05638
ltibia 49.018
lfoot -23.6401 0.273276
ltoes -19.7237
620
root -0.191101 16.4958 -1.38354 8.21319 -4.5655 -6.65387
lowerback 12.8667 -1.7972 -4.40761
upperback 3.38271 -3.09514 -3.40963
thorax -3.60693 -1.50819 -0.598049
lowerneck -17.9032 -8.97043 -12.4386
upperneck 24.5033 -15.4282 20.7968
head 14.2715 -5.71048 7.5967
rclavicle 1.59028e-015 -9.54166e-015
rhumerus 20.4084 -28.626 -11.6677
rradius 93.8469
rwrist 7.69654
rhand 0.689331 19.5696
rfingers 7.12502
rthumb 26.2505 -8.6346
lclavicle 1.59028e-015 -9.54166e-015
lhumerus 35.3536 17.7451 54.7124
lradius 97.422
lwrist 21.2411
lhand 8.68755 23.5192
lfingers 7.12502
lthumb 33.8805 50.3294
rfemur -29.3106 2.6005 25.9005
rtibia 41.3844
rfoot -23.6463 0.416656
rtoes -21.5638
lfemur -31.2585 0.75931 -8.53807
ltibia 49.1866
lfoot -23.8078 -0.00406301
ltoes -18.6155
621
root -0.227319 16.491 -1.38677 8.15225 -4.69949 -6.87568
lowerback 13.0611 -1.90719 -4.64775
upperback 3.34101 -3.3024 -3.7342
thorax -3.75883 -1.60584 -0.763671
lowerneck -18.0051 -8.89634 -12.4698
upperneck 24.6211 -15.3015 20.7223
head 14.3086 -5.65988 7.60447
rclavicle 3.97569e-014 -1.59028e-014
rhumerus 20.4613 -28.6757 -11.0637
rradius 93.7864
rwrist 7.86336
rhand 0.775357 19.8786
rfingers 7.12502
rthumb 26.3328 -8.31332
lclavicle 3.97569e-014 -1.59028e-014
lhumerus 34.9174 17.5267 55.3273
lradius 97.5294
lwrist 21.1005
lhand 8.49872 23.6936
lfingers 7.12502
lthumb 33.7011 50.5433
rfemur -29.1795 2.61066 26.2878
rtibia 41.2958
rfoot -23.6684 0.615367
rtoes -21.4926
lfemur -31.1704 1.00152 -8.17122
ltibia 49.3278
lfoot -23.93 -0.0429363
ltoes -18.719
622
root -0.264728 16.4852 -1.38902 8.05146 -4.87084 -7.22947
lowerback 13.2394 -1.96167 -4.7994
upperback 3.35488 -3.41798 -3.97012
thorax -3.84542 -1.6605 -0.901692
lowerneck -18.0693 -8.86799 -12.6128
upperneck 24.5724 -15.1996 20.7243
head 14.2914 -5.62947 7.64851
rclavicle 4.37326e-014 9.54166e-015
rhumerus 20.43 -28.8434 -10.3707
rradius 93.8388
rwrist 8.10138
rhand 0.573232 19.8359
rfingers 7.12502
rthumb 26.1393 -8.3848
lclavicle 4.37326e-014 9.54166e-015
lhumerus 34.618 17.2817 55.9668
lradius 97.5277
lwrist 21.0275
lhand 8.29494 23.7626
lfingers 7.12502
lthumb 33.5074 50.6544
rfemur -28.9684 2.69733 26.8203
rtibia 41.1898
rfoot -23.6576 0.809245
rtoes -21.2024
lfemur -31.0099 1.28534 -7.64489
ltibia 49.4589
lfoot -24.0339 -0.0791269
ltoes -19.083
623
root -0.299587 16.4827 -1.38921 7.98631 -5.03434 -7.47879
lowerback 13.3299 -1.98065 -4.94829
upperback 3.37982 -3.48254 -4.25814
thorax -3.87698 -1.69143 -1.10759
lowerneck -18.0791 -8.89823 -12.7066
upperneck 24.4561 -15.1959 20.7362
head 14.2524 -5.64077 7.66114
rclavicle 6.36111e-015 6.36111e-015
rhumerus 20.1388 -29.0031 -9.49995
rradius 94.0062
rwrist 8.27827
rhand 0.508144 19.8438
rfingers 7.12502
rthumb 26.077 -8.38616
lclavicle 6.36111e-015 6.36111e-015
lhumerus 34.4264 16.942 56.5549
lradius 97.5101
lwrist 20.9514
lhand 8.1076 23.8731
lfingers 7.12502
lthumb 33.3293 50.8032
rfemur -28.7645 2.77252 27.2185
rtibia 41.0502
rfoot -23.6364 1.01526
rtoes -21.2162
lfemur -30.8862 1.54244 -7.2472
ltibia 49.5909
lfoot -24.1498 -0.104409
ltoes -19.5139
624
root -0.33221 16.478 -1.39102 7.94524 -5.16738 -7.82715
lowerback 13.4618 -2.01328 -5.00209
upperback 3.36445 -3.55599 -4.48622
thorax -3.97594 -1.72566 -1.30001
lowerneck -18.2002 -8.92647 -12.7259
upperneck 24.5416 -15.1882 20.5786
head 14.2948 -5.6475 7.59968
rclavicle -1.82882e-014 6.36111e-015
rhumerus 19.9229 -29.0495 -8.6688
rradius 94.1758
rwrist 8.39996
rhand 0.929371 20.2192
rfingers 7.12502
rthumb 26.4802 -7.95059
lclavicle -1.82882e-014 6.36111e-015
lhumerus 34.1534 16.656 57.0047
lradius 97.4424
lwrist 20.899
lhand 7.86944 23.6755
lfingers 7.12502
lthumb 33.1029 50.6539
rfemur -28.5878 2.85501 27.735
rtibia 40.8981
rfoot -23.6111 1.07978
rtoes -21.614
lfemur -30.8006 1.73571 -6.73229
ltibia 49.7287
lfoot -24.2865 -0.138071
ltoes -19.5079
625
root -0.364713 16.4701 -1.39326 7.90016 -5.23629 -8.31496
lowerback 13.5584 -2.07094 -4.95777
upperback 3.39244 -3.63871 -4.62143
thorax -4.01031 -1.76668 -1.45022
lowerneck -18.2446 -8.94346 -12.8574
upperneck 24.5315 -15.1566 20.5485
head 14.3009 -5.64939 7.61521
rclavicle 1.27222e-014 6.04305e-014
rhumerus 19.9855 -29.2256 -8.15945
rradius 94.3565
rwrist 8.51723
rhand 1.40357 20.6007
rfingers 7.12502
rthumb 26.934 -7.49988
lclavicle 1.27222e-014 6.04305e-014
lhumerus 33.9095 16.4281 57.3329
lradius 97.2786
lwrist 20.8429
lhand 7.45166 23.4654
lfingers 7.12502
lthumb 32.7055 50.5273
rfemur -28.3905 2.97197 28.3991
rtibia 40.7399
rfoot -23.5525 1.11309
rtoes -21.5247
lfemur -30.7336 1.91609 -6.0439
ltibia 49.8607
lfoot -24.348 -0.379424
ltoes -18.9409
626
root -0.396477 16.4661 -1.39289 7.79294 -5.317 -8.5175
lowerback 13.6146 -2.06708 -5.22068
upperback 3.46126 -3.67618 -4.76454
thorax -3.96076 -1.78482 -1.44757
lowerneck -18.1995 -8.97707 -13.0495
upperneck 24.4009 -15.117 20.5344
head 14.2405 -5.65947 7.64225
rclavicle -9.54166e-014 -2.8625e-014
rhumerus 19.8884 -29.4616 -7.55496
rradius 94.657
rwrist 8.50401
rhand 1.56775 20.6982
rfingers 7.12502
rthumb 27.0911 -7.37805
lclavicle -9.54166e-014 -2.8625e-014
lhumerus 33.6961 16.1677 57.6932
lradius 97.1048
lwrist 20.7866
lhand 7.43881 23.2784
lfingers 7.12502
lthumb 32.6933 50.3429
rfemur -28.1728 3.02174 28.7476
rtibia 40.6062
rfoot -23.5213 1.17134
rtoes -21.3367
lfemur -30.5803 2.02953 -5.68348
ltibia 49.9405
lfoot -24.4544 -0.451537
ltoes -19.2532
627
root -0.425111 16.4659 -1.3911 7.7286 -5.39403 -8.62494
lowerback 13.6284 -2.04432 -5.52527
upperback 3.45803 -3.69599 -4.90124
thorax -3.96104 -1.79241 -1.41827
lowerneck -18.024 -8.99036 -13.1951
upperneck 24.2683 -15.0301 20.3937
head 14.1179 -5.66404 7.616
rclavicle 3.18055e-015 -3.18055e-015
rhumerus 19.686 -29.5028 -6.83018
rradius 94.9992
rwrist 8.42869
rhand 1.54947 20.6678
rfingers 7.12502
rthumb 27.0736 -7.41115
lclavicle 3.18055e-015 -3.18055e-015
lhumerus 33.4232 15.8751 58.0168
lradius 96.9154
lwrist 20.7058
lhand 7.77196 23.2698
lfingers 7.12502
lthumb 33.0102 50.2679
rfemur -27.9848 2.99922 28.9845
rtibia 40.4502
rfoot -23.5396 1.24837
rtoes -21.6506
lfemur -30.4594 2.13708 -5.45519
ltibia 49.9884
lfoot -24.5527 -0.465818
ltoes -19.5688
628
root -0.450096 16.4653 -1.39175 7.69983 -5.43677 -8.77624
lowerback 13.6537 -2.07055 -5.69554
upperback 3.43639 -3.7657 -5.05905
thorax -3.99665 -1.82473 -1.47703
lowerneck -17.8592 -8.99452 -13.2281
upperneck 24.1463 -14.9452 20.1832
head 13.9841 -5.66454 7.53842
rclavicle -5.56597e-015 -3.18055e-014
rhumerus 19.5815 -29.488 -6.29662
rradius 95.3007
rwrist 8.40109
rhand 1.37033 20.7452
rfingers 7.12502
rthumb 26.9022 -7.36033
lclavicle -5.56597e-015 -3.18055e-014
lhumerus 33.1771 15.6261 58.1906
lradius 96.7268
lwrist 20.5215
lhand 7.93321 23.2314
lfingers 7.12502
lthumb 33.1635 50.197
rfemur -27.8496 2.89844 29.2661
rtibia 40.3053
rfoot -23.5373 1.41153
rtoes -21.6611
lfemur -30.38 2.18767 -5.18299
ltibia 50.0021
lfoot -24.5797 -0.449875
ltoes -19.6803
629
root -0.47524 16.4655 -1.39195 7.66125 -5.4729 -9.07021
lowerback 13.6858 -2.11576 -5.77338
upperback 3.46355 -3.84012 -5.13033
thorax -3.98434 -1.86136 -1.49602
lowerneck -17.8062 -9.00098 -13.4109
upperneck 24.0689 -14.8768 20.1536
head 13.9362 -5.66104 7.56806
rclavicle 2.62396e-014 6.36111e-015
rhumerus 19.6031 -29.5305 -5.86221
rradius 95.6163
rwrist 8.34948
rhand 1.27548 20.7671
rfingers 7.12502
rthumb 26.8115 -7.35237
lclavicle 2.62396e-014 6.36111e-015
lhumerus 32.9527 15.5473 58.2976
lradius 96.5489
lwrist 20.3875
lhand 8.15623 23.011
lfingers 7.12502
lthumb 33.3756 49.9312
rfemur -27.6672 2.9298 29.6947
rtibia 40.1426
rfoot -23.5358 1.46014
rtoes -21.5984
lfemur -30.2677 2.22487 -4.74671
ltibia 50.0166
lfoot -24.6339 -0.24587
ltoes -20.5052
630
root -0.500897 16.4644 -1.392 7.60867 -5.56965 -9.23995
lowerback 13.7307 -2.08394 -5.99621
upperback 3.49461 -3.83505 -5.21989
thorax -3.96729 -1.85796 -1.46654
lowerneck -17.8661 -9.03126 -13.559
upperneck 24.1226 -14.8726 20.1303
head 13.9817 -5.67191 7.58884
rclavicle -4.77083e-015 -2.54444e-014
rhumerus 19.4675 -29.6275 -5.42139
rradius 96.0817
rwrist 8.29634
rhand 1.35712 20.6869
rfingers 7.12502
rthumb 26.8896 -7.4205
lclavicle -4.77083e-015 -2.54444e-014
lhumerus 32.8582 15.4017 58.4386
lradius 96.3896
lwrist 20.3654
lhand 8.08398 22.8657
lfingers 7.12502
lthumb 33.3069 49.8007
rfemur -27.5083 3.01424 29.978
rtibia 39.9952
rfoot -23.5224 1.54838
rtoes -21.5854
lfemur -30.1408 2.29012 -4.4487
ltibia 50.0296
lfoot -24.6674 -0.233898
ltoes -20.586
